<?xml version="1.0" encoding="UTF-8"?>
<!DOCTYPE svg PUBLIC "-//W3C//DTD SVG 1.1//EN" "http://www.w3.org/Graphics/SVG/1.1/DTD/svg11.dtd">
<!-- Creator: CorelDRAW -->
<svg xmlns="http://www.w3.org/2000/svg" xml:space="preserve" width="6.82666in" height="6.82666in" style="shape-rendering:geometricPrecision; text-rendering:geometricPrecision; image-rendering:optimizeQuality; fill-rule:evenodd; clip-rule:evenodd"
viewBox="0 0 6.82666 6.82666"
 xmlns:xlink="http://www.w3.org/1999/xlink">
 <defs>
  <style type="text/css">
   <![CDATA[
    .fil3 {fill:none}
    .fil0 {fill:#3A3A3A}
    .fil1 {fill:#545454}
    .fil2 {fill:#757575}
    .fil4 {fill:#8E8E8F}
    .fil5 {fill:#474747;fill-rule:nonzero}
    .fil6 {fill:#545454;fill-rule:nonzero}
    .fil7 {fill:#AEAEAF;fill-rule:nonzero}
   ]]>
  </style>
 </defs>
 <g id="Layer_x0020_1">
  <metadata id="CorelCorpID_0Corel-Layer"/>
  <path class="fil0" d="M3.04596 2.08399c1.00564,0 1.82087,0.136898 1.82087,0.305772 0,0.168874 -0.767858,0.596902 -1.7735,0.596902 -1.00564,0 -1.86824,-0.428028 -1.86824,-0.596902 0,-0.168874 0.815232,-0.305772 1.82087,-0.305772z"/>
  <g id="_263191520">
   <path id="_263191808" class="fil1" d="M4.44322 2.58781c0.123724,0.0989331 -0.622898,0.217811 -1.3913,0.217811 -0.76839,0 -1.34813,-0.0999134 -1.39129,-0.217811 -0.111535,-0.304701 2.32537,-0.365606 2.78259,0z"/>
   <path id="_263191328" class="fil2" d="M4.41819 2.66583c-0.018748,0.119843 -0.622898,0.217807 -1.3913,0.217807 -0.768398,0 -1.41031,-0.0979764 -1.3913,-0.217807 0.0612953,-0.386134 2.84269,-0.384165 2.78259,0z"/>
  </g>
  <g id="_263190584">
   <rect id="_263191160" class="fil3" width="6.82666" height="6.82666"/>
   <rect id="_263190680" class="fil3" x="0.853331" y="0.853331" width="5.12" height="5.12"/>
  </g>
  <ellipse class="fil4" cx="3.04667" cy="5.25376" rx="2.19334" ry="0.383831"/>
  <path class="fil5" d="M4.94129 2.74487c0.304937,0 0.606201,-0.0550315 0.843516,0.212728 0.25137,0.283594 0.25137,0.73989 0,1.02348 -0.236732,0.267102 -0.544122,0.212728 -0.848606,0.212728l0 -0.219339c0.240783,0 0.530118,0.0557992 0.711157,-0.148469 0.175429,-0.197917 0.175429,-0.515409 0,-0.713327 -0.180539,-0.203701 -0.466209,-0.148469 -0.706067,-0.148469l0 -0.219339z"/>
  <path class="fil6" d="M4.85071 2.34025l0.0322441 0.0600354c0.16126,0.263547 0.233484,0.650039 0.233484,1.045 0,0.323717 -0.0481693,0.656012 -0.135173,0.931634 -0.0911929,0.288886 -0.228055,0.520461 -0.40178,0.62676 -0.358976,0.219634 -2.68488,0.227217 -3.06203,0.00252362 -0.174358,-0.103886 -0.312087,-0.333709 -0.404083,-0.622024 -0.0877953,-0.275161 -0.136472,-0.607 -0.136472,-0.930988 0,-0.394055 0.0720118,-0.781925 0.232957,-1.05205l0.0319094 -0.0608937c1.18844,0.551378 2.39044,0.58824 3.60894,0z"/>
  <path class="fil7" d="M2.50305 1.00871c-0.13839,0.149102 -0.0565433,0.285917 0.0187402,0.411756 0.10776,0.180126 0.20665,0.345425 -0.0292244,0.530445l-0.109732 -0.140488c0.111894,-0.0877677 0.0515945,-0.188567 -0.0141142,-0.298398 -0.108236,-0.180925 -0.225909,-0.377618 0.00362992,-0.624929l0.130701 0.121614zm1.22481 0c-0.138394,0.149106 -0.0565433,0.285917 0.0187402,0.411756 0.107756,0.180126 0.20665,0.345421 -0.0292244,0.530445l-0.109732 -0.140488c0.11189,-0.0877677 0.0515945,-0.188567 -0.0141142,-0.298398 -0.108236,-0.180925 -0.225909,-0.377618 0.00362992,-0.624929l0.130701 0.121614zm-0.612402 0c-0.13839,0.149102 -0.0565472,0.285917 0.0187362,0.411756 0.10776,0.180126 0.20665,0.345425 -0.0292205,0.530445l-0.109736 -0.140488c0.111894,-0.0877677 0.0515945,-0.188567 -0.0141102,-0.298398 -0.10824,-0.180925 -0.225909,-0.377618 0.00362598,-0.624929l0.130705 0.121614z"/>
 </g>
</svg>
